<svg width="32" height="32" viewBox="0 0 32 32" fill="none" xmlns="http://www.w3.org/2000/svg">
    <path d="M16.6125 28.925C16.4305 28.8485 16.2752 28.7198 16.1662 28.5552C16.0572 28.3906 15.9994 28.1974 16 28V23H6C5.46957 23 4.96086 22.7893 4.58579 22.4142C4.21071 22.0392 4 21.5304 4 21V11C4 10.4696 4.21071 9.96087 4.58579 9.5858C4.96086 9.21073 5.46957 9.00001 6 9.00001H16V4.00001C15.9994 3.80259 16.0572 3.6094 16.1662 3.44479C16.2752 3.28018 16.4305 3.15151 16.6125 3.07501C16.7972 3.00297 16.9985 2.98469 17.1932 3.0223C17.3879 3.0599 17.5679 3.15185 17.7125 3.28751L29.7125 15.2875C29.9003 15.4771 30.0056 15.7332 30.0056 16C30.0056 16.2669 29.9003 16.5229 29.7125 16.7125L17.7125 28.7125C17.5679 28.8482 17.3879 28.9401 17.1932 28.9777C16.9985 29.0153 16.7972 28.9971 16.6125 28.925Z"
          fill="black"/>
</svg>
