<svg width="32" height="32" viewBox="0 0 32 32" fill="none" xmlns="http://www.w3.org/2000/svg">
    <path d="M28 16C28 16.2652 27.8947 16.5196 27.7071 16.7071C27.5196 16.8947 27.2652 17 27 17H15V25C15.0006 25.1974 14.9428 25.3906 14.8338 25.5552C14.7248 25.7198 14.5695 25.8485 14.3875 25.925C14.2642 25.974 14.1327 25.9994 14 26C13.7345 25.9989 13.4795 25.896 13.2875 25.7125L4.28751 16.7125C4.09973 16.5229 3.99438 16.2669 3.99438 16C3.99438 15.7332 4.09973 15.4771 4.28751 15.2875L13.2875 6.28751C13.4321 6.15185 13.6121 6.0599 13.8068 6.0223C14.0015 5.98469 14.2028 6.00297 14.3875 6.07501C14.5695 6.15151 14.7248 6.28018 14.8338 6.44479C14.9428 6.6094 15.0006 6.80259 15 7.00001V15H27C27.2652 15 27.5196 15.1054 27.7071 15.2929C27.8947 15.4804 28 15.7348 28 16Z"
          fill="black"/>
</svg>
