<svg width="32" height="32" viewBox="0 0 32 32" fill="none" xmlns="http://www.w3.org/2000/svg">
    <path d="M16 3C13.4288 3 10.9154 3.76244 8.77759 5.1909C6.63975 6.61935 4.97351 8.64968 3.98957 11.0251C3.00563 13.4006 2.74819 16.0144 3.2498 18.5362C3.75141 21.0579 4.98953 23.3743 6.80762 25.1924C8.6257 27.0105 10.9421 28.2486 13.4638 28.7502C15.9856 29.2518 18.5995 28.9944 20.9749 28.0104C23.3503 27.0265 25.3807 25.3603 26.8091 23.2224C28.2376 21.0846 29 18.5712 29 16C28.9934 12.5542 27.6216 9.25145 25.1851 6.81491C22.7486 4.37837 19.4458 3.00661 16 3ZM20.175 16.7375L15.175 21.2375C14.9894 21.4042 14.7495 21.4976 14.5 21.5C14.3611 21.5007 14.2237 21.4722 14.0966 21.4162C13.9695 21.3602 13.8557 21.278 13.7625 21.175C13.5835 20.9794 13.4896 20.7207 13.5013 20.4558C13.513 20.1909 13.6295 19.9416 13.825 19.7625L18 16L13.825 12.2375C13.636 12.0568 13.5253 11.8093 13.5165 11.548C13.5078 11.2867 13.6018 11.0323 13.7783 10.8395C13.9548 10.6466 14.1999 10.5305 14.461 10.5161C14.722 10.5017 14.9784 10.5902 15.175 10.7625L20.175 15.2625C20.2773 15.3562 20.359 15.4701 20.4149 15.5971C20.4708 15.7241 20.4997 15.8613 20.4997 16C20.4997 16.1387 20.4708 16.2759 20.4149 16.4029C20.359 16.5299 20.2773 16.6438 20.175 16.7375Z"
          fill="black"/>
</svg>
