<svg width="32" height="32" viewBox="0 0 32 32" fill="none" xmlns="http://www.w3.org/2000/svg">
    <path d="M16 3C13.4288 3 10.9154 3.76244 8.77759 5.1909C6.63975 6.61935 4.97351 8.64968 3.98957 11.0251C3.00563 13.4006 2.74819 16.0144 3.2498 18.5362C3.75141 21.0579 4.98953 23.3743 6.80762 25.1924C8.6257 27.0105 10.9421 28.2486 13.4638 28.7502C15.9856 29.2518 18.5995 28.9944 20.9749 28.0104C23.3503 27.0265 25.3807 25.3603 26.8091 23.2224C28.2376 21.0846 29 18.5712 29 16C28.9934 12.5542 27.6216 9.25145 25.1851 6.81491C22.7486 4.37837 19.4458 3.00661 16 3ZM18.675 19.7625C18.8705 19.9416 18.987 20.1909 18.9987 20.4558C19.0104 20.7207 18.9165 20.9794 18.7375 21.175C18.6443 21.278 18.5305 21.3602 18.4034 21.4162C18.2763 21.4722 18.1389 21.5007 18 21.5C17.7506 21.4976 17.5106 21.4042 17.325 21.2375L12.325 16.7375C12.2227 16.6438 12.141 16.5299 12.0851 16.4029C12.0292 16.2759 12.0004 16.1387 12.0004 16C12.0004 15.8613 12.0292 15.7241 12.0851 15.5971C12.141 15.4701 12.2227 15.3562 12.325 15.2625L17.325 10.7625C17.4213 10.6705 17.5349 10.5986 17.6593 10.5512C17.7837 10.5037 17.9163 10.4815 18.0494 10.4859C18.1824 10.4904 18.3133 10.5214 18.4342 10.577C18.5552 10.6327 18.6638 10.712 18.7537 10.8102C18.8435 10.9084 18.9129 11.0236 18.9577 11.149C19.0025 11.2744 19.0218 11.4075 19.0145 11.5404C19.0071 11.6733 18.9733 11.8035 18.915 11.9232C18.8568 12.0429 18.7751 12.1498 18.675 12.2375L14.5 16L18.675 19.7625Z"
          fill="black"/>
</svg>
