<svg width="32" height="32" viewBox="0 0 32 32" fill="none" xmlns="http://www.w3.org/2000/svg">
    <path d="M26.7125 19.2875L16.7125 9.28751C16.5229 9.09973 16.2669 8.99438 16 8.99438C15.7332 8.99438 15.4771 9.09973 15.2875 9.28751L5.28751 19.2875C5.15185 19.4321 5.0599 19.6121 5.0223 19.8068C4.98469 20.0015 5.00297 20.2028 5.07501 20.3875C5.15151 20.5695 5.28018 20.7248 5.44479 20.8338C5.6094 20.9428 5.80259 21.0006 6.00001 21H26C26.1974 21.0006 26.3906 20.9428 26.5552 20.8338C26.7198 20.7248 26.8485 20.5695 26.925 20.3875C26.9971 20.2028 27.0153 20.0015 26.9777 19.8068C26.9401 19.6121 26.8482 19.4321 26.7125 19.2875Z"
          fill="black"/>
</svg>
