<svg width="32" height="32" viewBox="0 0 32 32" fill="none" xmlns="http://www.w3.org/2000/svg">
    <path d="M22.7125 15.2875L12.7125 5.28745C12.5679 5.15179 12.3879 5.05984 12.1932 5.02223C11.9985 4.98463 11.7972 5.00291 11.6125 5.07495C11.4305 5.15145 11.2752 5.28012 11.1662 5.44473C11.0572 5.60934 10.9994 5.80253 11 5.99995V26C10.9994 26.1974 11.0572 26.3906 11.1662 26.5552C11.2752 26.7198 11.4305 26.8484 11.6125 26.925C11.7359 26.9739 11.8673 26.9994 12 27C12.2655 26.9988 12.5205 26.8959 12.7125 26.7125L22.7125 16.7125C22.9003 16.5229 23.0056 16.2668 23.0056 16C23.0056 15.7331 22.9003 15.477 22.7125 15.2875Z"
          fill="black"/>
</svg>
