<svg width="32" height="32" viewBox="0 0 32 32" fill="none" xmlns="http://www.w3.org/2000/svg">
    <path d="M20.3875 5.07495C20.2028 5.00291 20.0015 4.98463 19.8068 5.02223C19.6121 5.05984 19.4321 5.15179 19.2875 5.28745L9.28751 15.2875C9.09973 15.477 8.99438 15.7331 8.99438 16C8.99438 16.2668 9.09973 16.5229 9.28751 16.7125L19.2875 26.7125C19.4795 26.8959 19.7345 26.9988 20 27C20.1327 26.9994 20.2642 26.9739 20.3875 26.925C20.5695 26.8484 20.7248 26.7198 20.8338 26.5552C20.9428 26.3906 21.0006 26.1974 21 26V5.99995C21.0006 5.80253 20.9428 5.60934 20.8338 5.44473C20.7248 5.28012 20.5695 5.15145 20.3875 5.07495Z"
          fill="black"/>
</svg>
