<svg width="32" height="32" viewBox="0 0 32 32" fill="none" xmlns="http://www.w3.org/2000/svg">
    <path d="M26.925 11.6125C26.8485 11.4305 26.7198 11.2752 26.5552 11.1662C26.3906 11.0572 26.1974 10.9994 26 11H6C5.80257 10.9994 5.60938 11.0572 5.44477 11.1662C5.28016 11.2752 5.1515 11.4305 5.075 11.6125C5.00295 11.7972 4.98468 11.9985 5.02228 12.1932C5.05989 12.3879 5.15184 12.5679 5.2875 12.7125L15.2875 22.7125C15.4786 22.8973 15.7341 23.0006 16 23.0006C16.2659 23.0006 16.5214 22.8973 16.7125 22.7125L26.7125 12.7125C26.8482 12.5679 26.9401 12.3879 26.9777 12.1932C27.0153 11.9985 26.997 11.7972 26.925 11.6125Z"
          fill="black"/>
</svg>
