<svg width="32" height="32" viewBox="0 0 32 32" fill="none" xmlns="http://www.w3.org/2000/svg">
    <path d="M16 3C13.4288 3 10.9154 3.76244 8.77759 5.1909C6.63975 6.61935 4.97351 8.64968 3.98957 11.0251C3.00563 13.4006 2.74819 16.0144 3.2498 18.5362C3.75141 21.0579 4.98953 23.3743 6.80762 25.1924C8.6257 27.0105 10.9421 28.2486 13.4638 28.7502C15.9856 29.2518 18.5995 28.9944 20.9749 28.0104C23.3503 27.0265 25.3807 25.3603 26.8091 23.2224C28.2376 21.0846 29 18.5712 29 16C28.9934 12.5542 27.6216 9.25145 25.1851 6.81491C22.7486 4.37837 19.4458 3.00661 16 3ZM22.1875 13.725L14.8625 20.725C14.6731 20.9031 14.4225 21.0016 14.1625 21C14.0354 21.0018 13.9093 20.9785 13.7913 20.9313C13.6733 20.8841 13.5658 20.814 13.475 20.725L9.81251 17.225C9.71092 17.1364 9.62831 17.0281 9.56963 16.9067C9.51095 16.7854 9.47741 16.6534 9.47104 16.5187C9.46467 16.3841 9.48559 16.2495 9.53255 16.1231C9.57951 15.9968 9.65154 15.8812 9.7443 15.7834C9.83706 15.6856 9.94865 15.6075 10.0723 15.5539C10.196 15.5003 10.3293 15.4723 10.4641 15.4715C10.5989 15.4707 10.7325 15.4972 10.8568 15.5493C10.9811 15.6015 11.0936 15.6783 11.1875 15.775L14.1625 18.6125L20.8125 12.275C21.0069 12.1054 21.2594 12.0174 21.5172 12.0296C21.7749 12.0418 22.018 12.1532 22.1955 12.3404C22.3731 12.5277 22.4714 12.7763 22.4699 13.0343C22.4684 13.2924 22.3672 13.5398 22.1875 13.725Z"
          fill="black"/>
</svg>
