<svg width="32" height="32" viewBox="0 0 32 32" fill="none" xmlns="http://www.w3.org/2000/svg">
    <path d="M28.2375 12.85C27.7625 12.3625 27.275 11.85 27.0875 11.4125C26.9 10.975 26.9125 10.325 26.9 9.6625C26.8875 8.45 26.8625 7.0625 25.9 6.1C24.9375 5.1375 23.55 5.1125 22.3375 5.1C21.675 5.0875 21 5.075 20.5875 4.9125C20.175 4.75 19.6375 4.2375 19.15 3.7625C18.2875 2.9375 17.3 2 16 2C14.7 2 13.7125 2.9375 12.85 3.7625C12.3625 4.2375 11.85 4.725 11.4125 4.9125C10.975 5.1 10.325 5.0875 9.6625 5.1C8.45 5.1125 7.0625 5.1375 6.1 6.1C5.1375 7.0625 5.1125 8.45 5.1 9.6625C5.0875 10.325 5.075 11 4.9125 11.4125C4.75 11.825 4.2375 12.3625 3.7625 12.85C2.9375 13.7125 2 14.7 2 16C2 17.3 2.9375 18.2875 3.7625 19.15C4.2375 19.6375 4.725 20.15 4.9125 20.5875C5.1 21.025 5.0875 21.675 5.1 22.3375C5.1125 23.55 5.1375 24.9375 6.1 25.9C7.0625 26.8625 8.45 26.8875 9.6625 26.9C10.325 26.9125 11 26.925 11.4125 27.0875C11.825 27.25 12.3625 27.7625 12.85 28.2375C13.7125 29.0625 14.7 30 16 30C17.3 30 18.2875 29.0625 19.15 28.2375C19.6375 27.7625 20.15 27.275 20.5875 27.0875C21.025 26.9 21.675 26.9125 22.3375 26.9C23.55 26.8875 24.9375 26.8625 25.9 25.9C26.8625 24.9375 26.8875 23.55 26.9 22.3375C26.9125 21.675 26.925 21 27.0875 20.5875C27.25 20.175 27.7625 19.6375 28.2375 19.15C29.0625 18.2875 30 17.3 30 16C30 14.7 29.0625 13.7125 28.2375 12.85ZM22.1875 13.725L14.8625 20.725C14.6731 20.9031 14.4225 21.0016 14.1625 21C13.9063 21.001 13.6598 20.9024 13.475 20.725L9.8125 17.225C9.71092 17.1364 9.6283 17.0281 9.56962 16.9067C9.51094 16.7854 9.47741 16.6534 9.47104 16.5187C9.46466 16.3841 9.48559 16.2495 9.53255 16.1231C9.5795 15.9968 9.65153 15.8812 9.74429 15.7834C9.83706 15.6856 9.94864 15.6075 10.0723 15.5539C10.196 15.5003 10.3293 15.4723 10.4641 15.4715C10.5989 15.4707 10.7325 15.4972 10.8568 15.5493C10.9811 15.6015 11.0936 15.6783 11.1875 15.775L14.1625 18.6125L20.8125 12.275C21.0069 12.1054 21.2594 12.0174 21.5172 12.0296C21.7749 12.0418 22.018 12.1532 22.1955 12.3404C22.3731 12.5277 22.4714 12.7763 22.4699 13.0343C22.4684 13.2924 22.3672 13.5398 22.1875 13.725Z"
          fill="black"/>
</svg>
