<svg width="32" height="32" viewBox="0 0 32 32" fill="none" xmlns="http://www.w3.org/2000/svg">
    <path d="M29.5 15H27.9625C27.722 12.1732 26.4898 9.52237 24.4837 7.51627C22.4776 5.51017 19.8268 4.27797 17 4.0375V2.5C17 2.23478 16.8946 1.98043 16.7071 1.79289C16.5196 1.60536 16.2652 1.5 16 1.5C15.7348 1.5 15.4804 1.60536 15.2929 1.79289C15.1054 1.98043 15 2.23478 15 2.5V4.0375C12.1732 4.27797 9.52237 5.51017 7.51627 7.51627C5.51017 9.52237 4.27797 12.1732 4.0375 15H2.5C2.23478 15 1.98043 15.1054 1.79289 15.2929C1.60536 15.4804 1.5 15.7348 1.5 16C1.5 16.2652 1.60536 16.5196 1.79289 16.7071C1.98043 16.8946 2.23478 17 2.5 17H4.0375C4.27797 19.8268 5.51017 22.4776 7.51627 24.4837C9.52237 26.4898 12.1732 27.722 15 27.9625V29.5C15 29.7652 15.1054 30.0196 15.2929 30.2071C15.4804 30.3946 15.7348 30.5 16 30.5C16.2652 30.5 16.5196 30.3946 16.7071 30.2071C16.8946 30.0196 17 29.7652 17 29.5V27.9625C19.8268 27.722 22.4776 26.4898 24.4837 24.4837C26.4898 22.4776 27.722 19.8268 27.9625 17H29.5C29.7652 17 30.0196 16.8946 30.2071 16.7071C30.3946 16.5196 30.5 16.2652 30.5 16C30.5 15.7348 30.3946 15.4804 30.2071 15.2929C30.0196 15.1054 29.7652 15 29.5 15ZM24.5 17H25.95C25.7125 19.2926 24.6933 21.4337 23.0635 23.0635C21.4337 24.6933 19.2926 25.7125 17 25.95V24.5C17 24.2348 16.8946 23.9804 16.7071 23.7929C16.5196 23.6054 16.2652 23.5 16 23.5C15.7348 23.5 15.4804 23.6054 15.2929 23.7929C15.1054 23.9804 15 24.2348 15 24.5V25.95C12.7074 25.7125 10.5663 24.6933 8.93651 23.0635C7.3067 21.4337 6.28746 19.2926 6.05 17H7.5C7.76522 17 8.01957 16.8946 8.20711 16.7071C8.39464 16.5196 8.5 16.2652 8.5 16C8.5 15.7348 8.39464 15.4804 8.20711 15.2929C8.01957 15.1054 7.76522 15 7.5 15H6.05C6.28746 12.7074 7.3067 10.5663 8.93651 8.93651C10.5663 7.3067 12.7074 6.28746 15 6.05V7.5C15 7.76522 15.1054 8.01957 15.2929 8.20711C15.4804 8.39464 15.7348 8.5 16 8.5C16.2652 8.5 16.5196 8.39464 16.7071 8.20711C16.8946 8.01957 17 7.76522 17 7.5V6.05C19.2926 6.28746 21.4337 7.3067 23.0635 8.93651C24.6933 10.5663 25.7125 12.7074 25.95 15H24.5C24.2348 15 23.9804 15.1054 23.7929 15.2929C23.6054 15.4804 23.5 15.7348 23.5 16C23.5 16.2652 23.6054 16.5196 23.7929 16.7071C23.9804 16.8946 24.2348 17 24.5 17Z"
          fill="black"/>
    <path d="M16 21C18.7614 21 21 18.7614 21 16C21 13.2386 18.7614 11 16 11C13.2386 11 11 13.2386 11 16C11 18.7614 13.2386 21 16 21Z"
          fill="black"/>
</svg>
