<svg width="32" height="32" viewBox="0 0 32 32" fill="none" xmlns="http://www.w3.org/2000/svg">
    <path d="M28 15V26C28 26.5304 27.7893 27.0392 27.4142 27.4142C27.0391 27.7893 26.5304 28 26 28H6C5.46957 28 4.96086 27.7893 4.58579 27.4142C4.21071 27.0392 4 26.5304 4 26V6.00001C4 5.46958 4.21071 4.96087 4.58579 4.5858C4.96086 4.21072 5.46957 4.00001 6 4.00001H17C17.2652 4.00001 17.5196 4.10537 17.7071 4.2929C17.8946 4.48044 18 4.73479 18 5.00001C18 5.26523 17.8946 5.51958 17.7071 5.70712C17.5196 5.89465 17.2652 6.00001 17 6.00001H6V26H26V15C26 14.7348 26.1054 14.4804 26.2929 14.2929C26.4804 14.1054 26.7348 14 27 14C27.2652 14 27.5196 14.1054 27.7071 14.2929C27.8946 14.4804 28 14.7348 28 15ZM28.7125 8.71251L16.7125 20.7125C16.522 20.8982 16.266 21.0015 16 21H12C11.7348 21 11.4804 20.8947 11.2929 20.7071C11.1054 20.5196 11 20.2652 11 20V16C10.9985 15.734 11.1018 15.478 11.2875 15.2875L23.2875 3.28751C23.4771 3.09973 23.7332 2.99438 24 2.99438C24.2668 2.99438 24.5229 3.09973 24.7125 3.28751L28.7125 7.28751C28.9003 7.4771 29.0056 7.73316 29.0056 8.00001C29.0056 8.26686 28.9003 8.52292 28.7125 8.71251ZM26.5875 8.00001L24 5.41251L22.4125 7.00001L25 9.58751L26.5875 8.00001Z"
          fill="black"/>
</svg>
