<svg width="32" height="32" viewBox="0 0 32 32" fill="none" xmlns="http://www.w3.org/2000/svg">
    <path d="M16 3C13.4288 3 10.9154 3.76244 8.77759 5.1909C6.63975 6.61935 4.97351 8.64968 3.98957 11.0251C3.00563 13.4006 2.74819 16.0144 3.2498 18.5362C3.75141 21.0579 4.98953 23.3743 6.80762 25.1924C8.6257 27.0105 10.9421 28.2486 13.4638 28.7502C15.9856 29.2518 18.5995 28.9944 20.9749 28.0104C23.3503 27.0265 25.3807 25.3603 26.8091 23.2224C28.2376 21.0846 29 18.5712 29 16C28.9934 12.5542 27.6216 9.25145 25.1851 6.81491C22.7486 4.37837 19.4458 3.00661 16 3ZM16 24C15.7033 24 15.4133 23.912 15.1667 23.7472C14.92 23.5824 14.7277 23.3481 14.6142 23.074C14.5007 22.7999 14.471 22.4983 14.5288 22.2074C14.5867 21.9164 14.7296 21.6491 14.9393 21.4393C15.1491 21.2296 15.4164 21.0867 15.7074 21.0288C15.9983 20.9709 16.2999 21.0007 16.574 21.1142C16.8481 21.2277 17.0824 21.42 17.2472 21.6666C17.412 21.9133 17.5 22.2033 17.5 22.5C17.5 22.8978 17.342 23.2794 17.0607 23.5607C16.7794 23.842 16.3978 24 16 24ZM17 17.8875V18C17 18.2652 16.8946 18.5196 16.7071 18.7071C16.5196 18.8946 16.2652 19 16 19C15.7348 19 15.4804 18.8946 15.2929 18.7071C15.1054 18.5196 15 18.2652 15 18V17C15 16.7348 15.1054 16.4804 15.2929 16.2929C15.4804 16.1054 15.7348 16 16 16C16.4945 16 16.9778 15.8534 17.3889 15.5787C17.8001 15.304 18.1205 14.9135 18.3097 14.4567C18.4989 13.9999 18.5484 13.4972 18.452 13.0123C18.3555 12.5273 18.1174 12.0819 17.7678 11.7322C17.4181 11.3826 16.9727 11.1445 16.4877 11.048C16.0028 10.9516 15.5001 11.0011 15.0433 11.1903C14.5865 11.3795 14.196 11.7 13.9213 12.1111C13.6466 12.5222 13.5 13.0055 13.5 13.5C13.5 13.7652 13.3946 14.0196 13.2071 14.2071C13.0196 14.3946 12.7652 14.5 12.5 14.5C12.2348 14.5 11.9804 14.3946 11.7929 14.2071C11.6054 14.0196 11.5 13.7652 11.5 13.5C11.5 12.6529 11.7391 11.823 12.1898 11.1057C12.6406 10.3885 13.2846 9.81299 14.0479 9.4455C14.8111 9.07801 15.6626 8.93343 16.5044 9.02837C17.3462 9.12332 18.144 9.45394 18.8063 9.98221C19.4685 10.5105 19.9681 11.2149 20.2478 12.0146C20.5274 12.8142 20.5756 13.6765 20.3869 14.5024C20.1983 15.3282 19.7803 16.084 19.1811 16.6829C18.582 17.2817 17.8259 17.6993 17 17.8875Z"
          fill="black"/>
</svg>
