<svg width="32" height="32" viewBox="0 0 32 32" fill="none" xmlns="http://www.w3.org/2000/svg">
    <path d="M29.9 12.175C29.7749 11.7812 29.5337 11.4345 29.208 11.1802C28.8823 10.9259 28.4874 10.7759 28.075 10.75L20.65 10.2375L17.9 3.3C17.7499 2.918 17.4885 2.58988 17.1498 2.3581C16.811 2.12633 16.4105 2.00158 16 2C15.5896 2.00158 15.1891 2.12633 14.8503 2.3581C14.5116 2.58988 14.2502 2.918 14.1 3.3L11.3 10.275L3.92504 10.75C3.51318 10.7776 3.11907 10.9282 2.79371 11.1822C2.46835 11.4363 2.22671 11.7821 2.10004 12.175C1.96997 12.5739 1.96237 13.0026 2.07823 13.4059C2.19408 13.8092 2.42808 14.1685 2.75005 14.4375L8.42505 19.2375L6.73755 25.875C6.62079 26.324 6.6418 26.7978 6.79785 27.2347C6.95389 27.6716 7.23776 28.0515 7.61255 28.325C7.97633 28.5861 8.40976 28.7327 8.85734 28.7461C9.30493 28.7594 9.74633 28.6389 10.125 28.4L15.9875 24.6875H16.0125L22.325 28.675C22.6489 28.8854 23.0264 28.9983 23.4125 29C23.7279 28.9975 24.0384 28.9228 24.3203 28.7815C24.6022 28.6403 24.848 28.4362 25.0387 28.1851C25.2295 27.9341 25.3601 27.6426 25.4205 27.3331C25.481 27.0236 25.4697 26.7044 25.3875 26.4L23.6 19.1375L29.25 14.4375C29.572 14.1685 29.806 13.8092 29.9219 13.4059C30.0377 13.0026 30.0301 12.5739 29.9 12.175Z"
          fill="black"/>
</svg>
