<svg width="32" height="32" viewBox="0 0 32 32" fill="none" xmlns="http://www.w3.org/2000/svg">
    <path d="M27.7126 4.28752C27.5221 4.10179 27.2661 3.99852 27.0001 4.00002L19.0251 4.02502C18.8772 4.02521 18.7313 4.05776 18.5974 4.12038C18.4635 4.18301 18.3449 4.27419 18.2501 4.38752L9.45006 15.0375L8.41256 14C8.03603 13.629 7.52866 13.421 7.00006 13.421C6.47146 13.421 5.96408 13.629 5.58756 14L4.00006 15.5875C3.81336 15.7723 3.66515 15.9923 3.564 16.2348C3.46285 16.4772 3.41077 16.7373 3.41077 17C3.41077 17.2627 3.46285 17.5228 3.564 17.7653C3.66515 18.0077 3.81336 18.2277 4.00006 18.4125L6.61256 21.025L2.86256 24.7625C2.49077 25.1412 2.28247 25.6506 2.28247 26.1813C2.28247 26.7119 2.49077 27.2214 2.86256 27.6L4.40006 29.1375C4.78024 29.5064 5.28911 29.7126 5.81881 29.7126C6.3485 29.7126 6.85738 29.5064 7.23756 29.1375L10.9751 25.3875L13.5876 28C13.9641 28.371 14.4715 28.579 15.0001 28.579C15.5287 28.579 16.036 28.371 16.4126 28L18.0001 26.4125C18.1868 26.2277 18.335 26.0077 18.4361 25.7653C18.5373 25.5228 18.5893 25.2627 18.5893 25C18.5893 24.7373 18.5373 24.4772 18.4361 24.2348C18.335 23.9923 18.1868 23.7723 18.0001 23.5875L16.9626 22.55L27.6126 13.75C27.7259 13.6551 27.8171 13.5366 27.8797 13.4027C27.9423 13.2688 27.9749 13.1228 27.9751 12.975L28.0001 5.00002C28.0016 4.73397 27.8983 4.47802 27.7126 4.28752ZM25.9751 12.5L15.5376 21.125L13.9126 19.5L20.7126 12.7125C20.872 12.5182 20.9535 12.2716 20.9412 12.0205C20.9289 11.7695 20.8236 11.532 20.6458 11.3542C20.4681 11.1765 20.2306 11.0712 19.9796 11.0589C19.7285 11.0466 19.4819 11.1281 19.2876 11.2875L12.5001 18.0875L10.8751 16.4625L19.5001 6.02502L26.0001 6.00002L25.9751 12.5Z"
          fill="black"/>
</svg>
