<svg width="32" height="32" viewBox="0 0 32 32" fill="none" xmlns="http://www.w3.org/2000/svg">
    <path d="M28.9875 10.0125C28.7037 9.69632 28.3569 9.44293 27.9695 9.26858C27.582 9.09422 27.1624 9.00274 26.7375 9H20V7C19.9967 5.67493 19.4689 4.40508 18.5319 3.46811C17.5949 2.53114 16.3251 2.0033 15 2C14.8142 2.00151 14.6324 2.05348 14.4738 2.15035C14.3153 2.24723 14.1861 2.38537 14.1 2.55L9.375 12H4C3.46957 12 2.96086 12.2107 2.58579 12.5858C2.21071 12.9609 2 13.4696 2 14V25C2 25.5304 2.21071 26.0391 2.58579 26.4142C2.96086 26.7893 3.46957 27 4 27H25.2375C25.9672 26.997 26.671 26.7292 27.2182 26.2464C27.7653 25.7636 28.1186 25.0986 28.2125 24.375L29.7125 12.375C29.7624 11.9525 29.7237 11.5241 29.5989 11.1174C29.4741 10.7106 29.2658 10.3343 28.9875 10.0125ZM4 14H9V25H4V14Z"
          fill="black"/>
</svg>
