<svg width="32" height="32" viewBox="0 0 32 32" fill="none" xmlns="http://www.w3.org/2000/svg">
    <path d="M9.52502 16.525L19.025 5.025L27 5L26.975 12.975L15.475 22.475" stroke="black" stroke-width="2"
          stroke-linecap="round" stroke-linejoin="round"/>
    <path d="M12.5 19.5L20 12" stroke="black" stroke-width="2" stroke-linecap="round" stroke-linejoin="round"/>
    <path d="M10.2625 24.6875L6.525 28.425C6.33753 28.612 6.08354 28.717 5.81875 28.717C5.55395 28.717 5.29996 28.612 5.1125 28.425L3.575 26.8875C3.38798 26.7 3.28296 26.4461 3.28296 26.1813C3.28296 25.9165 3.38798 25.6625 3.575 25.475L7.3125 21.7375C7.40698 21.6445 7.48202 21.5336 7.53323 21.4112C7.58445 21.2889 7.61082 21.1576 7.61082 21.025C7.61082 20.8924 7.58445 20.7611 7.53323 20.6388C7.48202 20.5165 7.40698 20.4056 7.3125 20.3125L4.7125 17.7125C4.61801 17.6195 4.54298 17.5086 4.49176 17.3862C4.44054 17.2639 4.41417 17.1326 4.41417 17C4.41417 16.8674 4.44054 16.7361 4.49176 16.6138C4.54298 16.4915 4.61801 16.3806 4.7125 16.2875L6.2875 14.7125C6.38055 14.618 6.49146 14.543 6.61378 14.4918C6.7361 14.4406 6.86739 14.4142 7 14.4142C7.13261 14.4142 7.26389 14.4406 7.38621 14.4918C7.50854 14.543 7.61945 14.618 7.7125 14.7125L17.2875 24.2875C17.382 24.3806 17.457 24.4915 17.5082 24.6138C17.5594 24.7361 17.5858 24.8674 17.5858 25C17.5858 25.1326 17.5594 25.2639 17.5082 25.3862C17.457 25.5086 17.382 25.6195 17.2875 25.7125L15.7125 27.2875C15.6194 27.382 15.5085 27.457 15.3862 27.5082C15.2639 27.5595 15.1326 27.5858 15 27.5858C14.8674 27.5858 14.7361 27.5595 14.6138 27.5082C14.4915 27.457 14.3805 27.382 14.2875 27.2875L11.6875 24.6875C11.5944 24.593 11.4835 24.518 11.3612 24.4668C11.2389 24.4156 11.1076 24.3892 10.975 24.3892C10.8424 24.3892 10.7111 24.4156 10.5888 24.4668C10.4665 24.518 10.3555 24.593 10.2625 24.6875Z"
          stroke="black" stroke-width="2" stroke-linecap="round" stroke-linejoin="round"/>
</svg>
