<svg width="128" height="128" viewBox="0 0 128 128" fill="none" xmlns="http://www.w3.org/2000/svg">
    <path d="M0.5 2C0.5 1.17157 1.17157 0.5 2 0.5H126C126.828 0.5 127.5 1.17157 127.5 2V126C127.5 126.828 126.828 127.5 126 127.5H2C1.17157 127.5 0.5 126.828 0.5 126V2Z"
          fill="#FAFAFA" stroke="#D9D9D9"/>
    <path d="M63.5311 43.3749H64.4686C64.552 43.3749 64.5936 43.4165 64.5936 43.4999V54.4999C64.5936 54.5832 64.552 54.6249 64.4686 54.6249H63.5311C63.4478 54.6249 63.4061 54.5832 63.4061 54.4999V43.4999C63.4061 43.4165 63.4478 43.3749 63.5311 43.3749Z"
          fill="black"/>
    <path d="M58.7502 48.4061H69.2502C69.3336 48.4061 69.3752 48.4478 69.3752 48.5311V49.4686C69.3752 49.552 69.3336 49.5936 69.2502 49.5936H58.7502C58.6669 49.5936 58.6252 49.552 58.6252 49.4686V48.5311C58.6252 48.4478 58.6669 48.4061 58.7502 48.4061Z"
          fill="black"/>
    <path d="M49.1621 74.0469V80.8145C49.1576 81.7533 48.8613 82.5212 48.2734 83.1182C47.6901 83.7152 46.8971 84.0501 45.8945 84.123L45.5459 84.1367C44.4567 84.1367 43.5885 83.8428 42.9414 83.2549C42.2943 82.667 41.9661 81.8581 41.957 80.8281V74.0469H43.2559V80.7871C43.2559 81.5072 43.4541 82.0677 43.8506 82.4688C44.2471 82.8652 44.8122 83.0635 45.5459 83.0635C46.2887 83.0635 46.8561 82.8652 47.248 82.4688C47.6445 82.0723 47.8428 81.514 47.8428 80.7939V74.0469H49.1621ZM57.2832 80.3838C57.2832 81.5094 57.0257 82.4163 56.5107 83.1045C55.9958 83.7926 55.2985 84.1367 54.4189 84.1367C53.5212 84.1367 52.8148 83.8519 52.2998 83.2822V86.8438H51.0352V76.6035H52.1904L52.252 77.4238C52.7669 76.7858 53.4824 76.4668 54.3984 76.4668C55.2871 76.4668 55.9889 76.8018 56.5039 77.4717C57.0234 78.1416 57.2832 79.0736 57.2832 80.2676V80.3838ZM56.0186 80.2402C56.0186 79.4062 55.8408 78.7477 55.4854 78.2646C55.1299 77.7816 54.6423 77.54 54.0225 77.54C53.2568 77.54 52.6826 77.8796 52.2998 78.5586V82.0928C52.6781 82.7673 53.2568 83.1045 54.0361 83.1045C54.6423 83.1045 55.123 82.8652 55.4785 82.3867C55.8385 81.9036 56.0186 81.1882 56.0186 80.2402ZM60.2705 84H59.0059V73.5H60.2705V84ZM61.9658 80.2334C61.9658 79.5088 62.1071 78.8571 62.3896 78.2783C62.6768 77.6995 63.0732 77.2529 63.5791 76.9385C64.0895 76.624 64.6706 76.4668 65.3223 76.4668C66.3294 76.4668 67.1429 76.8154 67.7627 77.5127C68.387 78.21 68.6992 79.1374 68.6992 80.2949V80.3838C68.6992 81.1038 68.5602 81.751 68.2822 82.3252C68.0088 82.8949 67.6146 83.3392 67.0996 83.6582C66.5892 83.9772 66.0013 84.1367 65.3359 84.1367C64.3333 84.1367 63.5199 83.7881 62.8955 83.0908C62.2757 82.3936 61.9658 81.4707 61.9658 80.3223V80.2334ZM63.2373 80.3838C63.2373 81.2041 63.4264 81.8626 63.8047 82.3594C64.1875 82.8561 64.6979 83.1045 65.3359 83.1045C65.9785 83.1045 66.4889 82.8538 66.8672 82.3525C67.2454 81.8467 67.4346 81.1403 67.4346 80.2334C67.4346 79.4222 67.2409 78.766 66.8535 78.2646C66.4707 77.7588 65.9603 77.5059 65.3223 77.5059C64.6979 77.5059 64.1943 77.7542 63.8115 78.251C63.4287 78.7477 63.2373 79.4587 63.2373 80.3838ZM74.8516 84C74.7786 83.8542 74.7194 83.5944 74.6738 83.2207C74.0859 83.8314 73.3841 84.1367 72.5684 84.1367C71.8392 84.1367 71.2399 83.9316 70.7705 83.5215C70.3057 83.1068 70.0732 82.5827 70.0732 81.9492C70.0732 81.179 70.3649 80.582 70.9482 80.1582C71.5361 79.7298 72.361 79.5156 73.4229 79.5156H74.6533V78.9346C74.6533 78.4925 74.5212 78.1416 74.2568 77.8818C73.9925 77.6175 73.6029 77.4854 73.0879 77.4854C72.6367 77.4854 72.2585 77.5993 71.9531 77.8271C71.6478 78.055 71.4951 78.3307 71.4951 78.6543H70.2236C70.2236 78.2852 70.3535 77.9297 70.6133 77.5879C70.8776 77.2415 71.2331 76.9681 71.6797 76.7676C72.1309 76.5671 72.6253 76.4668 73.1631 76.4668C74.0153 76.4668 74.6829 76.681 75.166 77.1094C75.6491 77.5332 75.8997 78.1188 75.918 78.8662V82.2705C75.918 82.9495 76.0046 83.4896 76.1777 83.8906V84H74.8516ZM72.7529 83.0361C73.1494 83.0361 73.5254 82.9336 73.8809 82.7285C74.2363 82.5234 74.4938 82.2568 74.6533 81.9287V80.4111H73.6621C72.1126 80.4111 71.3379 80.8646 71.3379 81.7715C71.3379 82.168 71.4701 82.4779 71.7344 82.7012C71.9987 82.9245 72.3382 83.0361 72.7529 83.0361ZM77.5928 80.2402C77.5928 79.1055 77.8617 78.194 78.3994 77.5059C78.9372 76.8132 79.6413 76.4668 80.5117 76.4668C81.3776 76.4668 82.0635 76.763 82.5693 77.3555V73.5H83.834V84H82.6719L82.6104 83.207C82.1045 83.8268 81.4004 84.1367 80.498 84.1367C79.6413 84.1367 78.9417 83.7858 78.3994 83.084C77.8617 82.3822 77.5928 81.4661 77.5928 80.3359V80.2402ZM78.8574 80.3838C78.8574 81.2223 79.0306 81.8786 79.377 82.3525C79.7233 82.8265 80.2018 83.0635 80.8125 83.0635C81.6146 83.0635 82.2002 82.7035 82.5693 81.9834V78.5859C82.1911 77.8887 81.61 77.54 80.8262 77.54C80.2064 77.54 79.7233 77.7793 79.377 78.2578C79.0306 78.7363 78.8574 79.445 78.8574 80.3838Z"
          fill="black" fill-opacity="0.85"/>
</svg>
