<svg xmlns="http://www.w3.org/2000/svg" width="158" height="158"
     viewBox="0 0 158 158" fill="none">
    <g opacity="1" transform="translate(0 0)  rotate(0 79 79)">
        <path id="bg" fill-rule="evenodd" style="fill:#FFFFFF"
              transform="translate(0 0)  rotate(0 79.00000000000006 79)" opacity="1"
              d="M3.6739403974420604e-16,152C0,153.59129893903727 0.6321410421925062,155.11742241643108 1.7573593128807143,156.2426406871193C2.8825775835689216,157.3678589578075 4.408701060962734,158 5.999999999999999,158L152.0000000000001,158C155.31370849898488,158 158.0000000000001,155.31370849898477 158.0000000000001,152L158.0000000000001,6.000000000000001C158.0000000000001,4.408701060962735 157.3678589578076,2.8825775835689207 156.2426406871194,1.7573593128807135C155.1174224164312,0.6321410421925053 153.5912989390374,-8.881784197001252e-16 152.0000000000001,-8.881784197001252e-16L6.000000000000001,0C4.408701060962738,0 2.8825775835689234,0.6321410421925062 1.7573593128807152,1.7573593128807143C0.6321410421925071,2.882577583568923 0,4.408701060962735 0,5.999999999999999Z "/>
        <path id="bg" style="stroke:#DDDDDD; stroke-width:1; stroke-opacity:1; stroke-dasharray:0 0"
              transform="translate(0 0)  rotate(0 79.00000000000006 79)"
              d="M3.6739403974420604e-16,152C0,153.59129893903727 0.6321410421925062,155.11742241643108 1.7573593128807143,156.2426406871193C2.8825775835689216,157.3678589578075 4.408701060962734,158 5.999999999999999,158L152.0000000000001,158C155.31370849898488,158 158.0000000000001,155.31370849898477 158.0000000000001,152L158.0000000000001,6.000000000000001C158.0000000000001,4.408701060962735 157.3678589578076,2.8825775835689207 156.2426406871194,1.7573593128807135C155.1174224164312,0.6321410421925053 153.5912989390374,-8.881784197001252e-16 152.0000000000001,-8.881784197001252e-16L6.000000000000001,0C4.408701060962738,0 2.8825775835689234,0.6321410421925062 1.7573593128807152,1.7573593128807143C0.6321410421925071,2.882577583568923 0,4.408701060962735 0,5.999999999999999Z "/>
        <g opacity="1" transform="translate(47 48)  rotate(0 32 32)">
            <path id="Shape" fill-rule="evenodd" style="fill:#CCCCCC"
                  transform="translate(0 -4.263256414560602e-14)  rotate(0 31.999999999999996 31.99999999999996)"
                  opacity="1"
                  d="M64,30C64,28.9 63.05,28 61.86,28L34,28L34,2.14C34,0.95 33.11,0 32,0C30.89,0 30,0.95 30,2.14L30,28L2.14,28C0.95,28 0,28.9 0,30C0,31.1 0.95,32 2.14,32L30,32L30,61.86C30,63.05 30.89,64 32,64C33.11,64 34,63.05 34,61.86L34,32L61.86,32C63.05,32 64,31.1 64,30Z "/>
        </g>
    </g>
</svg>