<svg xmlns="http://www.w3.org/2000/svg" width="158" height="158"
     viewBox="0 0 158 158" fill="none">
    <g opacity="1" transform="translate(0 0)  rotate(0 79 79)">
        <path id="bg" fill-rule="evenodd" style="fill:#FFFFFF"
              transform="translate(0 0)  rotate(0 79.00000000000006 79)" opacity="1"
              d="M3.6739403974420604e-16,152C0,153.59129893903727 0.6321410421925062,155.11742241643108 1.7573593128807143,156.2426406871193C2.8825775835689216,157.3678589578075 4.408701060962734,158 5.999999999999999,158L152.0000000000001,158C155.31370849898488,158 158.0000000000001,155.31370849898477 158.0000000000001,152L158.0000000000001,6.000000000000001C158.0000000000001,4.408701060962735 157.3678589578076,2.8825775835689207 156.2426406871194,1.7573593128807135C155.1174224164312,0.6321410421925053 153.5912989390374,-8.881784197001252e-16 152.0000000000001,-8.881784197001252e-16L6.000000000000001,0C4.408701060962738,0 2.8825775835689234,0.6321410421925062 1.7573593128807152,1.7573593128807143C0.6321410421925071,2.882577583568923 0,4.408701060962735 0,5.999999999999999Z "/>
        <path id="bg" style="stroke:#DDDDDD; stroke-width:1; stroke-opacity:1; stroke-dasharray:0 0"
              transform="translate(0 0)  rotate(0 79.00000000000006 79)"
              d="M3.6739403974420604e-16,152C0,153.59129893903727 0.6321410421925062,155.11742241643108 1.7573593128807143,156.2426406871193C2.8825775835689216,157.3678589578075 4.408701060962734,158 5.999999999999999,158L152.0000000000001,158C155.31370849898488,158 158.0000000000001,155.31370849898477 158.0000000000001,152L158.0000000000001,6.000000000000001C158.0000000000001,4.408701060962735 157.3678589578076,2.8825775835689207 156.2426406871194,1.7573593128807135C155.1174224164312,0.6321410421925053 153.5912989390374,-8.881784197001252e-16 152.0000000000001,-8.881784197001252e-16L6.000000000000001,0C4.408701060962738,0 2.8825775835689234,0.6321410421925062 1.7573593128807152,1.7573593128807143C0.6321410421925071,2.882577583568923 0,4.408701060962735 0,5.999999999999999Z "/>
        <g opacity="1" transform="translate(47 48)  rotate(0 32 32)">
            <path id="Shape" fill-rule="evenodd" style="fill:#999999"
                  transform="translate(0 11)  rotate(0 31.999999999999837 21)" opacity="1"
                  d="M64,40.24L64,1.75L49.78,15.75L49.78,3.5C49.78,1.58 48.18,0 46.22,0L3.56,0C1.6,0 0,1.58 0,3.5L0,38.5C0,40.43 1.6,42 3.56,42L46.22,42C48.18,42 49.78,40.43 49.78,38.5L49.78,26.25L64,40.24Z "/>
        </g>
    </g>
</svg>