<svg xmlns="http://www.w3.org/2000/svg" width="158" height="158"
     viewBox="0 0 158 158" fill="none">
    <g opacity="1" transform="translate(0 0)  rotate(0 79 79)">
        <path id="bg" fill-rule="evenodd" style="fill:#FFFFFF"
              transform="translate(0 0)  rotate(0 79.00000000000006 79)" opacity="1"
              d="M3.6739403974420604e-16,152C0,153.59129893903727 0.6321410421925062,155.11742241643108 1.7573593128807143,156.2426406871193C2.8825775835689216,157.3678589578075 4.408701060962734,158 5.999999999999999,158L152.0000000000001,158C155.31370849898488,158 158.0000000000001,155.31370849898477 158.0000000000001,152L158.0000000000001,6.000000000000001C158.0000000000001,4.408701060962735 157.3678589578076,2.8825775835689207 156.2426406871194,1.7573593128807135C155.1174224164312,0.6321410421925053 153.5912989390374,-8.881784197001252e-16 152.0000000000001,-8.881784197001252e-16L6.000000000000001,0C4.408701060962738,0 2.8825775835689234,0.6321410421925062 1.7573593128807152,1.7573593128807143C0.6321410421925071,2.882577583568923 0,4.408701060962735 0,5.999999999999999Z "/>
        <path id="bg" style="stroke:#DDDDDD; stroke-width:1; stroke-opacity:1; stroke-dasharray:0 0"
              transform="translate(0 0)  rotate(0 79.00000000000006 79)"
              d="M3.6739403974420604e-16,152C0,153.59129893903727 0.6321410421925062,155.11742241643108 1.7573593128807143,156.2426406871193C2.8825775835689216,157.3678589578075 4.408701060962734,158 5.999999999999999,158L152.0000000000001,158C155.31370849898488,158 158.0000000000001,155.31370849898477 158.0000000000001,152L158.0000000000001,6.000000000000001C158.0000000000001,4.408701060962735 157.3678589578076,2.8825775835689207 156.2426406871194,1.7573593128807135C155.1174224164312,0.6321410421925053 153.5912989390374,-8.881784197001252e-16 152.0000000000001,-8.881784197001252e-16L6.000000000000001,0C4.408701060962738,0 2.8825775835689234,0.6321410421925062 1.7573593128807152,1.7573593128807143C0.6321410421925071,2.882577583568923 0,4.408701060962735 0,5.999999999999999Z "/>
        <g opacity="1" transform="translate(47 48)  rotate(0 32 32)">
            <path id="Shape" fill-rule="evenodd" style="fill:#999999"
                  transform="translate(0 4)  rotate(0 31.99999999999983 27.96875000000002)" opacity="1"
                  d="M37.6038 26.315C36.0838 24.805 34.0838 23.975 31.9438 23.975C29.8038 23.975 27.8038 24.805 26.2838 26.315C24.7738 27.835 23.9438 29.835 23.9438 31.975C23.9438 34.115 24.7738 36.115 26.2838 37.635C27.8038 39.145 29.8038 39.975 31.9438 39.975C34.0838 39.975 36.0838 39.145 37.6038 37.635C39.1138 36.115 39.9437 34.115 39.9437 31.975C39.9437 29.835 39.1138 27.835 37.6038 26.315Z M16.39 7.94L4 7.94C1.79 7.94 0 9.73 0 11.94L0 51.94C0 54.14 1.79 55.94 4 55.94L60 55.94C62.21 55.94 64 54.14 64 51.94L64 11.94C64 9.73 62.21 7.94 60 7.94L47.57 7.94L40.61 0.55C40.22 0.2 39.66 -7.81597e-14 39.07 -7.81597e-14L24.91 -7.81597e-14C24.31 -7.81597e-14 23.75 0.2 23.37 0.55L16.39 7.94Z M22.0375 7.93625L41.9275 7.93625L38.3175 4.10625L25.6675 4.10625L22.0375 7.93625Z M43.9437 31.975C43.9437 25.355 38.5638 19.975 31.9438 19.975C25.3237 19.975 19.9438 25.355 19.9438 31.975C19.9438 38.595 25.3237 43.975 31.9438 43.975C38.5638 43.975 43.9437 38.595 43.9437 31.975Z "/>
        </g>
    </g>
</svg>