<svg xmlns="http://www.w3.org/2000/svg" width="158" height="158"
     viewBox="0 0 158 158" fill="none">
    <g opacity="1" transform="translate(0 0)  rotate(0 79 79)">
        <path id="bg" fill-rule="evenodd" style="fill:#FFFFFF"
              transform="translate(0 0)  rotate(0 79.00000000000006 79)" opacity="1"
              d="M3.6739403974420604e-16,152C0,153.59129893903727 0.6321410421925062,155.11742241643108 1.7573593128807143,156.2426406871193C2.8825775835689216,157.3678589578075 4.408701060962734,158 5.999999999999999,158L152.0000000000001,158C155.31370849898488,158 158.0000000000001,155.31370849898477 158.0000000000001,152L158.0000000000001,6.000000000000001C158.0000000000001,4.408701060962735 157.3678589578076,2.8825775835689207 156.2426406871194,1.7573593128807135C155.1174224164312,0.6321410421925053 153.5912989390374,-8.881784197001252e-16 152.0000000000001,-8.881784197001252e-16L6.000000000000001,0C4.408701060962738,0 2.8825775835689234,0.6321410421925062 1.7573593128807152,1.7573593128807143C0.6321410421925071,2.882577583568923 0,4.408701060962735 0,5.999999999999999Z "/>
        <path id="bg" style="stroke:#DDDDDD; stroke-width:1; stroke-opacity:1; stroke-dasharray:0 0"
              transform="translate(0 0)  rotate(0 79.00000000000006 79)"
              d="M3.6739403974420604e-16,152C0,153.59129893903727 0.6321410421925062,155.11742241643108 1.7573593128807143,156.2426406871193C2.8825775835689216,157.3678589578075 4.408701060962734,158 5.999999999999999,158L152.0000000000001,158C155.31370849898488,158 158.0000000000001,155.31370849898477 158.0000000000001,152L158.0000000000001,6.000000000000001C158.0000000000001,4.408701060962735 157.3678589578076,2.8825775835689207 156.2426406871194,1.7573593128807135C155.1174224164312,0.6321410421925053 153.5912989390374,-8.881784197001252e-16 152.0000000000001,-8.881784197001252e-16L6.000000000000001,0C4.408701060962738,0 2.8825775835689234,0.6321410421925062 1.7573593128807152,1.7573593128807143C0.6321410421925071,2.882577583568923 0,4.408701060962735 0,5.999999999999999Z "/>
        <g opacity="1" transform="translate(47 48)  rotate(0 32 32)">
            <path id="Shape" fill-rule="evenodd" style="fill:#999999"
                  transform="translate(0 4)  rotate(0 31.99999999999983 28.000000000000135)" opacity="1"
                  d="M4 -2.77112e-13C1.79 -2.77112e-13 0 1.79 0 4L0 52C0 54.21 1.79 56 4 56L60 56C62.21 56 64 54.21 64 52L64 4C64 1.79 62.21 -2.77112e-13 60 -2.77112e-13L4 -2.77112e-13Z M4 47.29L18.48 19.33C19.16 18.01 21.01 17.87 21.88 19.08L32.76 34.24L42.36 26.45C43.27 25.71 44.62 25.91 45.28 26.88L60 48.63L60 4L4 4L4 47.29Z M46 14C46 16.21 47.79 18 50 18C52.21 18 54 16.21 54 14C54 11.79 52.21 10 50 10C47.79 10 46 11.79 46 14Z "/>
        </g>
    </g>
</svg>