<svg width="121" height="74" viewBox="0 0 121 74" fill="none" xmlns="http://www.w3.org/2000/svg">
    <path opacity="0.8" fill-rule="evenodd" clip-rule="evenodd"
          d="M24.2949 13.8637C25.5391 9.95404 26.6971 7.51981 27.7668 6.5601C30.7292 3.90389 34.8251 5.34951 35.6959 5.55656C38.755 6.2859 37.7603 1.48644 40.3849 0.510884C42.134 -0.139178 43.5725 0.655446 44.7013 2.89476C45.7007 0.805604 47.2236 -0.151303 49.2702 0.0193738C52.3405 0.27772 53.4149 10.5845 57.6337 8.32842C61.8535 6.07139 67.0267 5.55563 69.2365 8.90946C69.7142 9.63507 69.8971 8.50935 73.1457 4.66587C76.3943 0.821459 79.6335 -0.872247 86.279 1.36613C89.3005 2.38273 91.7852 5.13873 93.7361 9.63321C93.7361 16.048 98.4842 19.8458 107.978 21.0238C122.222 22.7911 111.166 38.0112 93.7361 42.4683C76.3052 46.9265 36.1745 49.3327 14.3971 38.0699C-0.121156 30.563 3.1781 22.4936 24.2939 13.8637H24.2949Z"
          fill="url(#paint0_linear_17_1745)"/>
    <path d="M60.0087 70.5507C74.5127 70.5507 86.2705 67.8457 86.2705 64.5089C86.2705 61.1721 74.5127 58.4672 60.0087 58.4672C45.5048 58.4672 33.7469 61.1721 33.7469 64.5089C33.7469 67.8457 45.5048 70.5507 60.0087 70.5507Z"
          fill="url(#paint1_linear_17_1745)"/>
    <path opacity="0.675" fill-rule="evenodd" clip-rule="evenodd"
          d="M104.346 72.0476C84.6003 76.9701 17.2009 71.3397 10.0272 68.7684C6.53556 67.5158 3.38831 65.1608 0.586382 61.7025C0.272783 61.3158 0.0756665 60.8489 0.0178102 60.3555C-0.040046 59.8622 0.0437195 59.3627 0.259427 58.9147C0.475135 58.4666 0.81398 58.0884 1.23681 57.8238C1.65963 57.5591 2.14919 57.4187 2.64889 57.4188H120.426C122.87 63.8896 117.51 68.7656 104.346 72.0476Z"
          fill="url(#paint2_linear_17_1745)"/>
    <path d="M80.1609 48.317L71.1799 37.8787C70.9675 37.6297 70.7036 37.4291 70.4061 37.2907C70.1086 37.1523 69.7846 37.0793 69.4562 37.0766H50.1448C49.4823 37.0766 48.8527 37.3788 48.421 37.8787L39.44 48.317V54.0473H80.1609V48.317Z"
          fill="url(#paint3_linear_17_1745)"/>
    <path d="M77.6161 54.258L69.7555 45.1665C69.5655 44.9518 69.3312 44.7803 69.0686 44.6637C68.806 44.547 68.5211 44.4879 68.2335 44.4903H51.3675C50.7885 44.4903 50.2227 44.7291 49.8454 45.1665L41.9848 54.258V59.2515H77.6161V54.258Z"
          fill="url(#paint4_linear_17_1745)"/>
    <path d="M80.1609 60.6141C80.1609 61.4097 79.8006 62.125 79.2319 62.6044L79.1165 62.6977C78.6657 63.0373 78.1152 63.2208 77.5495 63.22H42.0524C41.7315 63.22 41.4246 63.1621 41.1412 63.0558L41.0005 62.9999C40.5361 62.7945 40.1416 62.4598 39.8646 62.0362C39.5877 61.6126 39.4402 61.1184 39.44 60.6132V48.3795H49.32C50.4113 48.3795 51.2905 49.2721 51.2905 50.3549V50.3689C51.2905 51.4526 52.1801 52.3265 53.2714 52.3265H66.3295C66.8541 52.326 67.3571 52.119 67.7284 51.7506C68.0996 51.3823 68.3089 50.8828 68.3104 50.3614C68.3104 49.2739 69.1906 48.3795 70.281 48.3795H80.1619L80.1609 60.6141Z"
          fill="url(#paint5_linear_17_1745)"/>
    <defs>
        <linearGradient id="paint0_linear_17_1745" x1="62.5712" y1="34.4617" x2="62.5712" y2="-8.14535"
                        gradientUnits="userSpaceOnUse">
            <stop offset="0" stop-color="#DEDEDE" stop-opacity="0"/>
            <stop offset="1" stop-color="#A9A9A9" stop-opacity="0.3"/>
        </linearGradient>
        <linearGradient id="paint1_linear_17_1745" x1="57.2723" y1="70.5507" x2="57.2723" y2="58.4672"
                        gradientUnits="userSpaceOnUse">
            <stop offset="0" stop-color="white" stop-opacity="0"/>
            <stop offset="1" stop-color="#96A1C5" stop-opacity="0.373"/>
        </linearGradient>
        <linearGradient id="paint2_linear_17_1745" x1="60.5" y1="74" x2="60.5" y2="54.1565"
                        gradientUnits="userSpaceOnUse">
            <stop offset="0" stop-color="white" stop-opacity="0"/>
            <stop offset="1" stop-color="#919191" stop-opacity="0.15"/>
        </linearGradient>
        <linearGradient id="paint3_linear_17_1745" x1="59.8005" y1="37.0766" x2="59.8005" y2="44.7049"
                        gradientUnits="userSpaceOnUse">
            <stop offset="0" stop-color="#5389F5"/>
            <stop offset="1" stop-color="#416FDC"/>
        </linearGradient>
        <linearGradient id="paint4_linear_17_1745" x1="64.5555" y1="59.2515" x2="64.5555" y2="43.7055"
                        gradientUnits="userSpaceOnUse">
            <stop offset="0" stop-color="#DCE9FF"/>
            <stop offset="1" stop-color="#B6CFFF"/>
        </linearGradient>
        <linearGradient id="paint5_linear_17_1745" x1="59.8009" y1="48.3795" x2="59.8009" y2="63.22"
                        gradientUnits="userSpaceOnUse">
            <stop offset="0" stop-color="#7CA5F7"/>
            <stop offset="1" stop-color="#C4D6FC"/>
        </linearGradient>
    </defs>
</svg>
