<svg width="121" height="76" viewBox="0 0 121 76" fill="none" xmlns="http://www.w3.org/2000/svg">
    <path d="M61 57.7031C78.6731 57.7031 93 54.5923 93 50.755C93 46.9177 78.6731 43.807 61 43.807C43.3269 43.807 29 46.9177 29 50.755C29 54.5923 43.3269 57.7031 61 57.7031Z"
          fill="#F5F5F5"/>
    <path d="M84 31.6653L73.854 20.2487C73.367 19.4705 72.656 19 71.907 19H50.093C49.344 19 48.633 19.4705 48.146 20.2477L38 31.6663V40.8367H84V31.6653Z"
          stroke="#D9D9D9"/>
    <path d="M70.613 34.8127C70.613 33.2197 71.607 31.9045 72.84 31.9035H84V49.9059C84 52.0131 82.68 53.7402 81.05 53.7402H40.95C39.32 53.7402 38 52.0121 38 49.9059V31.9035H49.16C50.393 31.9035 51.387 33.2167 51.387 34.8098V34.8316C51.387 36.4247 52.392 37.7111 53.624 37.7111H68.376C69.608 37.7111 70.613 36.4128 70.613 34.8197V34.8127V34.8127Z"
          fill="#FAFAFA" stroke="#D9D9D9"/>
</svg>
